<svg width="9" height="9" viewBox="0 0 9 9" fill="none" xmlns="http://www.w3.org/2000/svg">
<path fill-rule="evenodd" clip-rule="evenodd" d="M3.80769 0.692308C3.80769 0.309957 4.11765 0 4.5 0C4.88235 0 5.19231 0.309957 5.19231 0.692308V3.80769H8.30769C8.69004 3.80769 9 4.11765 9 4.5C9 4.88235 8.69004 5.19231 8.30769 5.19231H5.19231V8.30769C5.19231 8.69004 4.88235 9 4.5 9C4.11765 9 3.80769 8.69004 3.80769 8.30769V5.19231H0.692308C0.309957 5.19231 0 4.88235 0 4.5C0 4.11765 0.309957 3.80769 0.692308 3.80769H3.80769V0.692308Z" fill="#444444"/>
</svg>
